<svg width="83" height="55" viewBox="0 0 83 55" fill="none" xmlns="http://www.w3.org/2000/svg">
<path d="M28.08 39L28 24.16L20.8 36.24H17.28L10.12 24.56V39H2.8V11H9.32L19.16 27.16L28.76 11H35.28L35.36 39H28.08ZM40.9641 11H48.8841V39H40.9641V11ZM76.0388 24.4C77.6388 24.96 78.8921 25.84 79.7988 27.04C80.7054 28.2133 81.1588 29.64 81.1588 31.32C81.1588 33.7733 80.1721 35.6667 78.1988 37C76.2254 38.3333 73.3721 39 69.6388 39H54.5188V11H68.8388C72.4121 11 75.1321 11.6667 76.9988 13C78.8654 14.3067 79.7988 16.08 79.7988 18.32C79.7988 19.6533 79.4654 20.8533 78.7988 21.92C78.1588 22.96 77.2388 23.7867 76.0388 24.4ZM62.3588 16.72V22.12H67.7988C70.4654 22.12 71.7988 21.2133 71.7988 19.4C71.7988 17.6133 70.4654 16.72 67.7988 16.72H62.3588ZM68.9988 33.28C71.7721 33.28 73.1588 32.3333 73.1588 30.44C73.1588 28.5467 71.7721 27.6 68.9988 27.6H62.3588V33.28H68.9988Z" fill="white"/>
<path d="M9.132 45.448C9.94 45.448 10.58 45.688 11.052 46.168C11.532 46.64 11.772 47.352 11.772 48.304V52H9.9V48.592C9.9 48.08 9.792 47.7 9.576 47.452C9.368 47.196 9.068 47.068 8.676 47.068C8.236 47.068 7.888 47.212 7.632 47.5C7.376 47.78 7.248 48.2 7.248 48.76V52H5.376V48.592C5.376 47.576 4.968 47.068 4.152 47.068C3.72 47.068 3.376 47.212 3.12 47.5C2.864 47.78 2.736 48.2 2.736 48.76V52H0.864V45.544H2.652V46.288C2.892 46.016 3.184 45.808 3.528 45.664C3.88 45.52 4.264 45.448 4.68 45.448C5.136 45.448 5.548 45.54 5.916 45.724C6.284 45.9 6.58 46.16 6.804 46.504C7.068 46.168 7.4 45.908 7.8 45.724C8.208 45.54 8.652 45.448 9.132 45.448ZM16.0539 45.448C17.0539 45.448 17.8219 45.688 18.3579 46.168C18.8939 46.64 19.1619 47.356 19.1619 48.316V52H17.4099V51.196C17.0579 51.796 16.4019 52.096 15.4419 52.096C14.9459 52.096 14.5139 52.012 14.1459 51.844C13.7859 51.676 13.5099 51.444 13.3179 51.148C13.1259 50.852 13.0299 50.516 13.0299 50.14C13.0299 49.54 13.2539 49.068 13.7019 48.724C14.1579 48.38 14.8579 48.208 15.8019 48.208H17.2899C17.2899 47.8 17.1659 47.488 16.9179 47.272C16.6699 47.048 16.2979 46.936 15.8019 46.936C15.4579 46.936 15.1179 46.992 14.7819 47.104C14.4539 47.208 14.1739 47.352 13.9419 47.536L13.2699 46.228C13.6219 45.98 14.0419 45.788 14.5299 45.652C15.0259 45.516 15.5339 45.448 16.0539 45.448ZM15.9099 50.836C16.2299 50.836 16.5139 50.764 16.7619 50.62C17.0099 50.468 17.1859 50.248 17.2899 49.96V49.3H16.0059C15.2379 49.3 14.8539 49.552 14.8539 50.056C14.8539 50.296 14.9459 50.488 15.1299 50.632C15.3219 50.768 15.5819 50.836 15.9099 50.836ZM24.7802 45.448C25.5802 45.448 26.2242 45.688 26.7122 46.168C27.2082 46.648 27.4562 47.36 27.4562 48.304V52H25.5842V48.592C25.5842 48.08 25.4722 47.7 25.2482 47.452C25.0242 47.196 24.7002 47.068 24.2762 47.068C23.8042 47.068 23.4282 47.216 23.1482 47.512C22.8682 47.8 22.7282 48.232 22.7282 48.808V52H20.8562V45.544H22.6442V46.3C22.8922 46.028 23.2002 45.82 23.5682 45.676C23.9362 45.524 24.3402 45.448 24.7802 45.448ZM32.5515 45.544H34.4235V52H32.5515V45.544ZM33.4875 44.644C33.1435 44.644 32.8635 44.544 32.6475 44.344C32.4315 44.144 32.3235 43.896 32.3235 43.6C32.3235 43.304 32.4315 43.056 32.6475 42.856C32.8635 42.656 33.1435 42.556 33.4875 42.556C33.8315 42.556 34.1115 42.652 34.3275 42.844C34.5435 43.036 34.6515 43.276 34.6515 43.564C34.6515 43.876 34.5435 44.136 34.3275 44.344C34.1115 44.544 33.8315 44.644 33.4875 44.644ZM40.0849 45.448C40.8849 45.448 41.5289 45.688 42.0169 46.168C42.5129 46.648 42.7609 47.36 42.7609 48.304V52H40.8889V48.592C40.8889 48.08 40.7769 47.7 40.5529 47.452C40.3289 47.196 40.0049 47.068 39.5809 47.068C39.1089 47.068 38.7329 47.216 38.4529 47.512C38.1729 47.8 38.0329 48.232 38.0329 48.808V52H36.1609V45.544H37.9489V46.3C38.1969 46.028 38.5049 45.82 38.8729 45.676C39.2409 45.524 39.6449 45.448 40.0849 45.448ZM51.6722 45.448C52.2722 45.448 52.8162 45.588 53.3042 45.868C53.8002 46.14 54.1882 46.528 54.4682 47.032C54.7482 47.528 54.8882 48.108 54.8882 48.772C54.8882 49.436 54.7482 50.02 54.4682 50.524C54.1882 51.02 53.8002 51.408 53.3042 51.688C52.8162 51.96 52.2722 52.096 51.6722 52.096C50.7842 52.096 50.1082 51.816 49.6442 51.256V52H47.8562V43.096H49.7282V46.228C50.2002 45.708 50.8482 45.448 51.6722 45.448ZM51.3482 50.56C51.8282 50.56 52.2202 50.4 52.5242 50.08C52.8362 49.752 52.9922 49.316 52.9922 48.772C52.9922 48.228 52.8362 47.796 52.5242 47.476C52.2202 47.148 51.8282 46.984 51.3482 46.984C50.8682 46.984 50.4722 47.148 50.1602 47.476C49.8562 47.796 49.7042 48.228 49.7042 48.772C49.7042 49.316 49.8562 49.752 50.1602 50.08C50.4722 50.4 50.8682 50.56 51.3482 50.56ZM56.1413 43.096H58.0133V52H56.1413V43.096ZM62.3547 45.448C63.3547 45.448 64.1227 45.688 64.6587 46.168C65.1947 46.64 65.4627 47.356 65.4627 48.316V52H63.7107V51.196C63.3587 51.796 62.7027 52.096 61.7427 52.096C61.2467 52.096 60.8147 52.012 60.4467 51.844C60.0867 51.676 59.8107 51.444 59.6187 51.148C59.4267 50.852 59.3307 50.516 59.3307 50.14C59.3307 49.54 59.5547 49.068 60.0027 48.724C60.4587 48.38 61.1587 48.208 62.1027 48.208H63.5907C63.5907 47.8 63.4667 47.488 63.2187 47.272C62.9707 47.048 62.5987 46.936 62.1027 46.936C61.7587 46.936 61.4187 46.992 61.0827 47.104C60.7547 47.208 60.4747 47.352 60.2427 47.536L59.5707 46.228C59.9227 45.98 60.3427 45.788 60.8307 45.652C61.3267 45.516 61.8347 45.448 62.3547 45.448ZM62.2107 50.836C62.5307 50.836 62.8147 50.764 63.0627 50.62C63.3107 50.468 63.4867 50.248 63.5907 49.96V49.3H62.3067C61.5387 49.3 61.1547 49.552 61.1547 50.056C61.1547 50.296 61.2467 50.488 61.4307 50.632C61.6227 50.768 61.8827 50.836 62.2107 50.836ZM70.3473 52.096C69.6593 52.096 69.0393 51.956 68.4873 51.676C67.9433 51.388 67.5153 50.992 67.2033 50.488C66.8993 49.984 66.7473 49.412 66.7473 48.772C66.7473 48.132 66.8993 47.56 67.2033 47.056C67.5153 46.552 67.9433 46.16 68.4873 45.88C69.0393 45.592 69.6593 45.448 70.3473 45.448C71.0273 45.448 71.6193 45.592 72.1233 45.88C72.6353 46.16 73.0073 46.564 73.2393 47.092L71.7873 47.872C71.4513 47.28 70.9673 46.984 70.3353 46.984C69.8473 46.984 69.4433 47.144 69.1233 47.464C68.8033 47.784 68.6433 48.22 68.6433 48.772C68.6433 49.324 68.8033 49.76 69.1233 50.08C69.4433 50.4 69.8473 50.56 70.3353 50.56C70.9753 50.56 71.4593 50.264 71.7873 49.672L73.2393 50.464C73.0073 50.976 72.6353 51.376 72.1233 51.664C71.6193 51.952 71.0273 52.096 70.3473 52.096ZM77.0423 49.468L76.1423 50.356V52H74.2703V43.096H76.1423V48.136L78.8783 45.544H81.1103L78.4223 48.28L81.3503 52H79.0823L77.0423 49.468Z" fill="white"/>
</svg>
